<svg width="2077" height="683" viewBox="0 0 2077 683" fill="none" xmlns="http://www.w3.org/2000/svg">
<path d="M1082.5 529.9L1093.75 527.95C1094.95 532.45 1097.15 535.8 1100.35 538C1103.55 540.1 1107.85 541.15 1113.25 541.15C1118.65 541.15 1122.75 540.25 1125.55 538.45C1128.35 536.55 1129.75 534.05 1129.75 530.95C1129.75 527.85 1128.65 525.5 1126.45 523.9C1124.35 522.2 1120.75 520.9 1115.65 520L1106.35 518.35C1099.75 517.15 1094.55 515.05 1090.75 512.05C1086.95 508.95 1085.05 504.3 1085.05 498.1C1085.05 491.9 1087.55 486.85 1092.55 482.95C1097.65 479.05 1104.35 477.1 1112.65 477.1C1121.35 477.1 1128.05 479.15 1132.75 483.25C1137.45 487.35 1140.3 492.1 1141.3 497.5L1130.35 499.9C1129.35 496.4 1127.45 493.45 1124.65 491.05C1121.95 488.65 1117.85 487.45 1112.35 487.45C1107.55 487.45 1103.75 488.4 1100.95 490.3C1098.15 492.2 1096.75 494.7 1096.75 497.8C1096.75 501.2 1097.95 503.6 1100.35 505C1102.75 506.3 1106.05 507.3 1110.25 508L1119.4 509.65C1127.2 511.05 1132.8 513.5 1136.2 517C1139.7 520.4 1141.45 524.95 1141.45 530.65C1141.45 536.75 1139.05 541.75 1134.25 545.65C1129.45 549.55 1122.35 551.5 1112.95 551.5C1104.65 551.5 1097.8 549.75 1092.4 546.25C1087.1 542.75 1083.8 537.3 1082.5 529.9ZM1208.82 526.75L1220.07 528.55C1218.67 534.95 1215.42 540.4 1210.32 544.9C1205.32 549.3 1198.32 551.5 1189.32 551.5C1179.42 551.5 1171.37 548.35 1165.17 542.05C1158.97 535.75 1155.87 526.5 1155.87 514.3C1155.87 508 1156.72 502.55 1158.42 497.95C1160.22 493.25 1162.62 489.35 1165.62 486.25C1168.62 483.15 1172.17 480.85 1176.27 479.35C1180.37 477.85 1184.77 477.1 1189.47 477.1C1198.77 477.1 1205.82 479.35 1210.62 483.85C1215.52 488.35 1218.57 493.6 1219.77 499.6L1208.82 501.7C1207.92 498.3 1206.02 495.15 1203.12 492.25C1200.22 489.25 1195.67 487.75 1189.47 487.75C1182.57 487.75 1177.22 490.15 1173.42 494.95C1169.72 499.65 1167.87 506.1 1167.87 514.3C1167.87 522.2 1169.72 528.6 1173.42 533.5C1177.12 538.4 1182.42 540.85 1189.32 540.85C1195.62 540.85 1200.17 539.4 1202.97 536.5C1205.87 533.5 1207.82 530.25 1208.82 526.75ZM1236.69 550V448H1248.69V487.9C1251.09 484.4 1254.39 481.75 1258.59 479.95C1262.89 478.05 1267.24 477.1 1271.64 477.1C1279.94 477.1 1286.54 479.3 1291.44 483.7C1296.34 488 1298.79 494.35 1298.79 502.75V550H1286.79V504.55C1286.79 499.65 1285.39 495.65 1282.59 492.55C1279.89 489.45 1275.44 487.9 1269.24 487.9C1263.54 487.9 1258.69 489.65 1254.69 493.15C1250.69 496.65 1248.69 501.35 1248.69 507.25V550H1236.69ZM1350.19 551.5C1345.29 551.5 1340.69 550.7 1336.39 549.1C1332.19 547.4 1328.59 545 1325.59 541.9C1322.59 538.7 1320.19 534.75 1318.39 530.05C1316.69 525.35 1315.84 520.05 1315.84 514.15C1315.84 502.35 1319.04 493.25 1325.44 486.85C1331.84 480.35 1340.09 477.1 1350.19 477.1C1360.19 477.1 1368.29 480.35 1374.49 486.85C1380.69 493.25 1383.79 502.35 1383.79 514.15C1383.79 525.75 1380.69 534.9 1374.49 541.6C1368.29 548.2 1360.19 551.5 1350.19 551.5ZM1350.19 540.85C1357.39 540.85 1362.79 538.5 1366.39 533.8C1369.99 529 1371.79 522.45 1371.79 514.15C1371.79 505.75 1369.99 499.25 1366.39 494.65C1362.79 490.05 1357.39 487.75 1350.19 487.75C1343.09 487.75 1337.59 490.05 1333.69 494.65C1329.79 499.25 1327.84 505.75 1327.84 514.15C1327.84 522.45 1329.84 529 1333.84 533.8C1337.84 538.5 1343.29 540.85 1350.19 540.85ZM1431.92 551.5C1427.02 551.5 1422.42 550.7 1418.12 549.1C1413.92 547.4 1410.32 545 1407.32 541.9C1404.32 538.7 1401.92 534.75 1400.12 530.05C1398.42 525.35 1397.57 520.05 1397.57 514.15C1397.57 502.35 1400.77 493.25 1407.17 486.85C1413.57 480.35 1421.82 477.1 1431.92 477.1C1441.92 477.1 1450.02 480.35 1456.22 486.85C1462.42 493.25 1465.52 502.35 1465.52 514.15C1465.52 525.75 1462.42 534.9 1456.22 541.6C1450.02 548.2 1441.92 551.5 1431.92 551.5ZM1431.92 540.85C1439.12 540.85 1444.52 538.5 1448.12 533.8C1451.72 529 1453.52 522.45 1453.52 514.15C1453.52 505.75 1451.72 499.25 1448.12 494.65C1444.52 490.05 1439.12 487.75 1431.92 487.75C1424.82 487.75 1419.32 490.05 1415.42 494.65C1411.52 499.25 1409.57 505.75 1409.57 514.15C1409.57 522.45 1411.57 529 1415.57 533.8C1419.57 538.5 1425.02 540.85 1431.92 540.85ZM1483.66 550V448H1495.66V550H1483.66Z" fill="white"/>
<path d="M1079 336.4L1109 331.2C1112.2 343.2 1118.07 352.133 1126.6 358C1135.13 363.6 1146.6 366.4 1161 366.4C1175.4 366.4 1186.33 364 1193.8 359.2C1201.27 354.133 1205 347.467 1205 339.2C1205 330.933 1202.07 324.667 1196.2 320.4C1190.6 315.867 1181 312.4 1167.4 310L1142.6 305.6C1125 302.4 1111.13 296.8 1101 288.8C1090.87 280.533 1085.8 268.133 1085.8 251.6C1085.8 235.067 1092.47 221.6 1105.8 211.2C1119.4 200.8 1137.27 195.6 1159.4 195.6C1182.6 195.6 1200.47 201.067 1213 212C1225.53 222.933 1233.13 235.6 1235.8 250L1206.6 256.4C1203.93 247.067 1198.87 239.2 1191.4 232.8C1184.2 226.4 1173.27 223.2 1158.6 223.2C1145.8 223.2 1135.67 225.733 1128.2 230.8C1120.73 235.867 1117 242.533 1117 250.8C1117 259.867 1120.2 266.267 1126.6 270C1133 273.467 1141.8 276.133 1153 278L1177.4 282.4C1198.2 286.133 1213.13 292.667 1222.2 302C1231.53 311.067 1236.2 323.2 1236.2 338.4C1236.2 354.667 1229.8 368 1217 378.4C1204.2 388.8 1185.27 394 1160.2 394C1138.07 394 1119.8 389.333 1105.4 380C1091.27 370.667 1082.47 356.133 1079 336.4ZM1286.27 390V118H1318.27V224.4C1324.67 215.067 1333.47 208 1344.67 203.2C1356.13 198.133 1367.73 195.6 1379.47 195.6C1401.6 195.6 1419.2 201.467 1432.27 213.2C1445.33 224.667 1451.87 241.6 1451.87 264V390H1419.87V268.8C1419.87 255.733 1416.13 245.067 1408.67 236.8C1401.47 228.533 1389.6 224.4 1373.07 224.4C1357.87 224.4 1344.93 229.067 1334.27 238.4C1323.6 247.733 1318.27 260.267 1318.27 276V390H1286.27ZM1628.12 390V367.6C1622.26 375.333 1614.12 381.733 1603.72 386.8C1593.59 391.6 1581.72 394 1568.12 394C1547.32 394 1530.79 388.933 1518.52 378.8C1506.52 368.667 1500.52 354.8 1500.52 337.2C1500.52 317.467 1507.06 303.2 1520.12 294.4C1533.46 285.6 1551.06 280.8 1572.92 280C1582.79 279.733 1591.99 279.733 1600.52 280C1609.06 280 1617.59 280.133 1626.12 280.4V264C1626.12 250.133 1622.12 240 1614.12 233.6C1606.12 227.2 1595.99 224 1583.72 224C1570.12 224 1559.72 227.333 1552.52 234C1545.59 240.667 1540.52 248.8 1537.32 258.4L1506.92 252C1510.92 235.2 1519.46 221.6 1532.52 211.2C1545.59 200.8 1562.66 195.6 1583.72 195.6C1605.32 195.6 1623.06 201.067 1636.92 212C1651.06 222.667 1658.12 239.6 1658.12 262.8V390H1628.12ZM1626.12 305.6C1618.12 305.333 1609.59 305.2 1600.52 305.2C1591.72 305.2 1582.79 305.333 1573.72 305.6C1560.12 306.133 1549.86 309.067 1542.92 314.4C1535.99 319.733 1532.52 327.2 1532.52 336.8C1532.52 345.867 1535.72 353.2 1542.12 358.8C1548.79 364.133 1557.72 366.8 1568.92 366.8C1584.92 366.8 1598.39 362.933 1609.32 355.2C1620.52 347.2 1626.12 336.8 1626.12 324V305.6ZM1715.95 390V199.6H1746.75V224.4C1752.89 215.067 1761.42 208 1772.35 203.2C1783.29 198.133 1794.35 195.6 1805.55 195.6C1821.55 195.6 1834.89 198.8 1845.55 205.2C1856.49 211.6 1864.35 220 1869.15 230.4C1875.02 218.933 1884.09 210.267 1896.35 204.4C1908.62 198.533 1921.29 195.6 1934.35 195.6C1955.69 195.6 1972.75 201.467 1985.55 213.2C1998.35 224.667 2004.75 241.6 2004.75 264V390H1972.75V268.8C1972.75 255.733 1969.29 245.067 1962.35 236.8C1955.42 228.533 1944.09 224.4 1928.35 224.4C1913.95 224.4 1901.69 229.067 1891.55 238.4C1881.42 247.733 1876.35 260.267 1876.35 276V390H1844.35V268.8C1844.35 255.733 1840.75 245.067 1833.55 236.8C1826.62 228.533 1815.29 224.4 1799.55 224.4C1785.15 224.4 1772.89 229.067 1762.75 238.4C1752.89 247.733 1747.95 260.267 1747.95 276V390H1715.95Z" fill="white"/>
<path d="M394.952 507.043L510.616 346.993L626.28 507.043L510.616 671.418L394.952 507.043Z" stroke="white" stroke-width="23" stroke-linejoin="round"/>
<path d="M1017 507.795H623.459" stroke="white" stroke-width="23" stroke-linejoin="round"/>
<path d="M947.883 253.898L595.248 457.016" stroke="white" stroke-width="23" stroke-linejoin="round"/>
<path d="M761.692 67.7062L558.574 420.341" stroke="white" stroke-width="23" stroke-linejoin="round"/>
<path d="M510.616 7.2883e-06L510.616 358.277" stroke="white" stroke-width="23" stroke-linejoin="round"/>
<path d="M1017 507.795H623.459" stroke="white" stroke-width="23" stroke-linejoin="round"/>
<path d="M69.1177 253.898L421.753 457.016" stroke="white" stroke-width="23" stroke-linejoin="round"/>
<path d="M255.308 67.7062L458.426 420.341" stroke="white" stroke-width="23" stroke-linejoin="round"/>
<path d="M6.05583e-05 507.795H393.541" stroke="white" stroke-width="23" stroke-linejoin="round"/>
</svg>
